# xmcd
#
# Track frame offsets:
#	183
#	11943
#	40818
#	52593
#	70065
#	85140
#	100220
#	131268
#	144015
#	157738
#	189465
#	209415
#	223590
#	243313
#	270915
#	296340
#
# Disc length: 4214 seconds
# Revision: 7
# Processed by: cddbd v1.5.2PL0 Copyright (c) Steve Scherf et al.
# Submitted via: dBpowerAMP V12.0
#
DISCID=ce107410
DTITLE=Various Artist - Bosses Of The Blues ~ Volume II [dBP-LITE-FLAC@]
DYEAR=1969
DGENRE=Blues
TTITLE0=Eddie "Cleanhead" Vinson - Cleanhead Blues
TTITLE1=Eddie "Cleanhead" Vinson - Pass Out
TTITLE2=Eddie "Cleanhead" Vinson - Alimony Blues
TTITLE3=Eddie "Cleanhead" Vinson - Cleanhead Is Back
TTITLE4=Eddie "Cleanhead" Vinson - Juice Head Baby
TTITLE5=Eddie "Cleanhead" Vinson - Old Maid Boogie
TTITLE6=Eddie "Cleanhead" Vinson - One O' Clock Humph
TTITLE7=Eddie "Cleanhead" Vinson - I Needs To Be'd Wid
TTITLE8=Otis Spann - Got My Mojo Workin_test
TTITLE9=Otis Spann - Sellin' My Thing
TTITLE10=Otis Spann - Moon Blues
TTITLE11=Otis Spann - I'm A Dues Payin' Man
TTITLE12=Otis Spann - I Wonder Why
TTITLE13=Otis Spann - Bird In A Cage
TTITLE14=Otis Spann - Hey Baby
TTITLE15=Otis Spann - Make A Way
EXTD=
EXTT0=
EXTT1=
EXTT2=
EXTT3=
EXTT4=
EXTT5=
EXTT6=
EXTT7=
EXTT8=
EXTT9=
EXTT10=
EXTT11=
EXTT12=
EXTT13=
EXTT14=
EXTT15=
PLAYORDER=
